<svg width="22" height="22" viewBox="0 0 22 22" fill="none" xmlns="http://www.w3.org/2000/svg">
<rect x="1" y="1" width="20" height="20" rx="10" stroke="#F2FA5A" stroke-width="2"/>
<path d="M8.81362 13.5194L6.15319 10.6113C6.10593 10.5596 6.03918 10.5301 5.96917 10.53C5.89916 10.5299 5.83231 10.5591 5.78487 10.6106L4.81614 11.6621C4.72818 11.7575 4.72792 11.9044 4.81554 12.0002L8.62907 16.1687C8.67643 16.2205 8.74337 16.25 8.81353 16.25C8.88369 16.25 8.95063 16.2205 8.99799 16.1687L17.1845 7.2202C17.2718 7.12468 17.2718 6.97823 17.1845 6.88271L16.2225 5.83125C16.1752 5.7795 16.1083 5.75002 16.0381 5.75C15.968 5.74998 15.9011 5.77943 15.8537 5.83117L8.81362 13.5194Z" fill="#F2FA5A" stroke="#F2FA5A" stroke-width="0.5" stroke-linejoin="round"/>
</svg>
