<svg width="22" height="22" viewBox="0 0 22 22" fill="none" xmlns="http://www.w3.org/2000/svg">
<rect x="1" y="1" width="20" height="20" rx="10" stroke="#DFFCB5" stroke-width="2"/>
<path d="M8.81364 13.4453L6.19008 10.5775C6.13337 10.5155 6.05327 10.4802 5.96926 10.48C5.88525 10.4799 5.80502 10.515 5.7481 10.5767L4.77937 11.6282C4.67382 11.7428 4.67351 11.919 4.77865 12.034L8.59218 16.2025C8.64901 16.2646 8.72933 16.3 8.81353 16.3C8.89773 16.3 8.97805 16.2646 9.03488 16.2025L17.2213 7.25395C17.3262 7.13932 17.3262 6.96359 17.2213 6.84896L16.2594 5.7975C16.2026 5.7354 16.1223 5.70002 16.0382 5.7C15.954 5.69998 15.8737 5.73532 15.8168 5.7974L8.81364 13.4453Z" fill="#DFFCB5" stroke="#DFFCB5" stroke-width="0.6" stroke-linejoin="round"/>
</svg>
